<svg xmlns="http://www.w3.org/2000/svg" role="img" width="173" height="50" viewBox="0 0 742 214" aria-label="Neovim"><title>Neovim</title><defs><linearGradient x1="50%" y1="0%" x2="50%" y2="100%" id="a"><stop stop-color="#16B0ED" stop-opacity=".8" offset="0%"/><stop stop-color="#0F59B2" stop-opacity=".837" offset="100%"/></linearGradient><linearGradient x1="50%" y1="0%" x2="50%" y2="100%" id="b"><stop stop-color="#7DB643" offset="0%"/><stop stop-color="#367533" offset="100%"/></linearGradient><linearGradient x1="50%" y1="0%" x2="50%" y2="100%" id="c"><stop stop-color="#88C649" stop-opacity=".8" offset="0%"/><stop stop-color="#439240" stop-opacity=".84" offset="100%"/></linearGradient></defs><g fill="none" fill-rule="evenodd"><path d="M.027 45.459 45.224-.173v212.171L.027 166.894z" fill="url(#a)" transform="translate(1 1)"/><path d="M129.337 45.89 175.152-.149l-.928 212.146-45.197-45.104.31-121.005z" fill="url(#b)" transform="matrix(-1 0 0 1 305 1)"/><path d="M45.194-.137 162.7 179.173l-32.882 32.881L12.25 33.141z" fill="url(#c)" transform="translate(1 1)"/><path d="m46.234 84.032-.063 7.063-36.28-53.563 3.36-3.422z" fill-opacity=".13" fill="#000"/><g fill="#444"><path d="M227 154V64.44h4.655q2.325 0 2.685 2.25l.806 13.502q6.086-7.74 14.188-12.466Q257.434 63 267.371 63q7.34 0 12.935 2.34 5.594 2.341 9.264 6.751 3.671 4.411 5.55 10.621T297 96.754V154h-8.504V96.754q0-12.602-5.729-19.757-5.73-7.156-17.544-7.156-8.775 0-16.292 4.545-7.52 4.547-13.427 12.467V154zm123.624-91q7.599 0 14.069 2.605 6.468 2.606 11.219 7.592c4.751 4.986 5.638 7.412 7.419 12.264Q386 92.739 386 102.17q0 1.977-.588 2.696-.59.72-1.851.719h-64.966v1.7q0 10.063 2.353 17.7 2.351 7.635 6.695 12.802 4.342 5.166 10.495 7.771 6.151 2.606 13.752 2.606 6.787 0 11.762-1.483t8.37-3.324q3.392-1.841 5.383-3.324 1.99-1.482 2.895-1.482 1.177 0 1.81.898l2.352 2.875q-2.171 2.696-5.745 5.031-3.575 2.337-7.962 3.998-4.388 1.663-9.41 2.65a52 52 0 0 1-10.088.989q-9.228 0-16.828-3.19-7.6-3.188-13.043-9.298-5.445-6.11-8.415-14.96C310.99 121.655 310 114.9 310 107.294q0-9.612 2.76-17.744t7.961-14.016q5.2-5.882 12.758-9.209 7.552-3.324 17.145-3.325m.573 6q-7.044 0-12.623 2.105-5.58 2.105-9.65 6.053t-6.586 9.474C319.822 92.159 319.55 94.439 319 99h60q0-7.018-2.013-12.588-2.014-5.568-5.67-9.43-3.66-3.857-8.782-5.92-5.12-2.061-11.338-2.062m84.349-6q9.79 0 17.524 3.28 7.73 3.28 13.04 9.298 5.307 6.02 8.099 14.51T477 109.09t-2.791 18.957q-2.792 8.446-8.099 14.465-5.31 6.018-13.04 9.254Q445.335 155 435.546 155q-9.792 0-17.525-3.234-7.733-3.236-13.085-9.254-5.355-6.02-8.145-14.465Q394 119.601 394 109.09t2.791-19.002q2.791-8.49 8.145-14.51 5.352-6.018 13.085-9.299 7.733-3.278 17.525-3.279m-.501 86q8.011 0 13.997-2.757 5.984-2.757 9.992-7.909 4.004-5.151 5.986-12.428c1.317-4.85 1.98-10.288 1.98-16.316q0-8.948-1.98-16.27-1.982-7.32-5.986-12.519-4.005-5.195-9.992-7.999-5.987-2.801-13.997-2.802c-8.01-.001-10.008.935-13.997 2.802q-5.987 2.804-9.992 8-4.006 5.197-6.03 12.518Q403 100.642 403 109.59q0 9.04 2.025 16.316 2.025 7.277 6.031 12.428 4.004 5.151 9.992 7.91Q427.033 149 435.045 149" fill="currentColor"/><path d="M530.57 152h-20.05L474 60h18.35q2.415.001 4.072 1.166 1.655 1.166 2.283 2.959l17.722 49.138a93 93 0 0 1 2.551 8.429q1.03 4.126 1.835 8.25a163 163 0 0 1 1.835-8.25 78 78 0 0 1 2.64-8.429l18.171-49.138q.626-1.793 2.238-2.96Q547.307 60 549.546 60H567zM572 61h23v92h-23zm38 92V60.443h13.624q4.33 0 5.682 4.06l1.443 6.856a53 53 0 0 1 5.097-4.962 32.7 32.7 0 0 1 5.683-3.879 30.7 30.7 0 0 1 6.496-2.57q3.47-.948 7.624-.948 8.749 0 14.39 4.736 5.638 4.736 8.434 12.585 2.166-4.601 5.413-7.894 3.248-3.292 7.127-5.367a33 33 0 0 1 8.254-3.068 39.6 39.6 0 0 1 8.796-.992q7.668.001 13.622 2.345 5.954 2.346 10.014 6.857 4.059 4.51 6.18 11.005C739.29 83.537 740 88.5 740 94.092V153h-22.284V94.092q-.001-8.84-3.878-13.306-3.88-4.465-11.368-4.465-3.428 0-6.358 1.172a15.2 15.2 0 0 0-5.144 3.383q-2.21 2.212-3.474 5.548-1.263 3.338-1.263 7.668V153h-22.37V94.092q0-9.29-3.744-13.532-3.745-4.239-11.051-4.24-4.784 0-8.976 2.391-4.197 2.391-7.804 6.54V153zM572 30h23v19h-23z" fill="currentColor" fill-opacity=".8"/></g></g></svg>
